<svg width="21" height="22" viewBox="0 0 21 22" fill="none" xmlns="http://www.w3.org/2000/svg">
<path d="M8.757 1.10377C7.35544 0.650058 5.83181 1.28116 5.16156 2.59306L4.35578 4.17023C4.26004 4.35763 4.10763 4.51004 3.92023 4.60578L2.34306 5.41156C1.03116 6.08181 0.400058 7.60544 0.853768 9.007L1.39923 10.692C1.46404 10.8922 1.46404 11.1078 1.39923 11.308L0.853768 12.993C0.400058 14.3946 1.03116 15.9182 2.34306 16.5885L3.92023 17.3942C4.10763 17.49 4.26004 17.6424 4.35578 17.8298L5.16156 19.407C5.83181 20.7189 7.35544 21.35 8.757 20.8963L10.442 20.3508C10.6422 20.286 10.8578 20.286 11.058 20.3508L12.743 20.8963C14.1446 21.35 15.6682 20.7189 16.3385 19.407L17.1442 17.8298C17.24 17.6424 17.3924 17.49 17.5798 17.3942L19.157 16.5885C20.4689 15.9182 21.1 14.3946 20.6463 12.993L20.1008 11.308C20.036 11.1078 20.036 10.8922 20.1008 10.692L20.6463 9.007C21.1 7.60544 20.4689 6.08181 19.157 5.41156L17.5798 4.60578C17.3924 4.51004 17.24 4.35763 17.1442 4.17023L16.3385 2.59306C15.6682 1.28116 14.1446 0.650058 12.743 1.10377L11.058 1.64923C10.8578 1.71403 10.6422 1.71404 10.442 1.64923L8.757 1.10377ZM5.50977 10.7573L6.92399 9.343L9.7524 12.1715L15.4093 6.51465L16.8235 7.92886L9.7524 14.9999L5.50977 10.7573Z" fill="#FF7B00"/>
</svg>
