<svg width="19" height="22" viewBox="0 0 19 22" fill="none" xmlns="http://www.w3.org/2000/svg">
<path d="M15.25 7.33333H17.25C17.8023 7.33333 18.25 7.78105 18.25 8.33333V20.3333C18.25 20.8856 17.8023 21.3333 17.25 21.3333H1.25C0.69772 21.3333 0.25 20.8856 0.25 20.3333V8.33333C0.25 7.78105 0.69772 7.33333 1.25 7.33333H3.25V6.33333C3.25 3.01962 5.93629 0.333328 9.25 0.333328C12.5637 0.333328 15.25 3.01962 15.25 6.33333V7.33333ZM8.25 15.0657V17.3333H10.25V15.0657C10.8478 14.7199 11.25 14.0736 11.25 13.3333C11.25 12.2287 10.3546 11.3333 9.25 11.3333C8.1454 11.3333 7.25 12.2287 7.25 13.3333C7.25 14.0736 7.6522 14.7199 8.25 15.0657ZM13.25 7.33333V6.33333C13.25 4.12419 11.4591 2.33333 9.25 2.33333C7.04086 2.33333 5.25 4.12419 5.25 6.33333V7.33333H13.25Z" fill="#1481B8"/>
</svg>
