<svg width="21" height="22" viewBox="0 0 21 22" fill="none" xmlns="http://www.w3.org/2000/svg">
<path d="M8.257 1.10377C6.85544 0.650058 5.33181 1.28116 4.66156 2.59306L3.85578 4.17023C3.76004 4.35763 3.60763 4.51004 3.42023 4.60578L1.84306 5.41156C0.531158 6.08181 -0.099942 7.60544 0.353768 9.007L0.899228 10.692C0.964028 10.8922 0.964028 11.1078 0.899228 11.308L0.353768 12.993C-0.099942 14.3946 0.531158 15.9182 1.84306 16.5885L3.42023 17.3942C3.60763 17.49 3.76004 17.6424 3.85578 17.8298L4.66156 19.407C5.33181 20.7189 6.85544 21.35 8.257 20.8963L9.942 20.3508C10.1422 20.286 10.3578 20.286 10.558 20.3508L12.243 20.8963C13.6446 21.35 15.1682 20.7189 15.8385 19.407L16.6442 17.8298C16.74 17.6424 16.8924 17.49 17.0798 17.3942L18.657 16.5885C19.9689 15.9182 20.6 14.3946 20.1463 12.993L19.6008 11.308C19.536 11.1078 19.536 10.8922 19.6008 10.692L20.1463 9.007C20.6 7.60544 19.9689 6.08181 18.657 5.41156L17.0798 4.60578C16.8924 4.51004 16.74 4.35763 16.6442 4.17023L15.8385 2.59306C15.1682 1.28116 13.6446 0.650058 12.243 1.10377L10.558 1.64923C10.3578 1.71403 10.1422 1.71404 9.942 1.64923L8.257 1.10377ZM6.44258 3.50299C6.666 3.06569 7.17388 2.85532 7.64107 3.00656L9.3261 3.55201C9.9267 3.74644 10.5733 3.74644 11.1739 3.55201L12.859 3.00656C13.3261 2.85532 13.834 3.06569 14.0574 3.50298L14.8632 5.08016C15.1504 5.64234 15.6077 6.09958 16.1699 6.3868L17.747 7.19258C18.1843 7.416 18.3947 7.92388 18.2435 8.39107L17.698 10.0761C17.5036 10.6767 17.5036 11.3233 17.698 11.9239L18.2435 13.609C18.3947 14.0761 18.1843 14.584 17.747 14.8074L16.1699 15.6132C15.6077 15.9004 15.1504 16.3577 14.8632 16.9199L14.0574 18.497C13.834 18.9343 13.3261 19.1447 12.859 18.9935L11.1739 18.448C10.5733 18.2536 9.9267 18.2536 9.3261 18.448L7.64107 18.9935C7.17388 19.1447 6.666 18.9343 6.44258 18.497L5.6368 16.9199C5.34958 16.3577 4.89234 15.9004 4.33016 15.6132L2.75299 14.8074C2.31569 14.584 2.10532 14.0761 2.25656 13.609L2.80201 11.9239C2.99644 11.3233 2.99644 10.6767 2.80201 10.0761L2.25656 8.39107C2.10532 7.92388 2.31569 7.416 2.75299 7.19258L4.33016 6.3868C4.89234 6.09958 5.34958 5.64234 5.6368 5.08016L6.44258 3.50299ZM5.0096 10.7574L9.2522 15L16.3233 7.92897L14.9091 6.51476L9.2522 12.1716L6.42382 9.3431L5.0096 10.7574Z" fill="#FF7B00"/>
</svg>
