<svg width="42" height="42" viewBox="0 0 42 42" fill="none" xmlns="http://www.w3.org/2000/svg">
<path d="M24.5 38.5V28.9612C24.5 28.3537 24.2238 27.7791 23.7494 27.3995L20.125 24.5M20.125 24.5L22.75 13.125M20.125 24.5L17.5 22.75M22.75 13.125L19.25 12.25M22.75 13.125L26.6676 19.3931C26.9595 19.8602 27.4312 20.1862 27.9713 20.2943L31.5 21M17.5 22.75L19.25 12.25M17.5 22.75L16.1501 30.1744C15.9367 31.348 14.7501 32.075 13.6077 31.7323L7 29.75M19.25 12.25L13.3556 15.1972C12.678 15.536 12.25 16.2285 12.25 16.9861V21M25.375 6.125C25.375 7.0915 24.5915 7.875 23.625 7.875C22.6585 7.875 21.875 7.0915 21.875 6.125C21.875 5.1585 22.6585 4.375 23.625 4.375C24.5915 4.375 25.375 5.1585 25.375 6.125Z" stroke="black" stroke-width="2" stroke-linecap="round" stroke-linejoin="round"/>
</svg>
