<svg width="115" height="110" viewBox="0 0 115 110" fill="none" xmlns="http://www.w3.org/2000/svg">
<g opacity="0.6">
<path d="M67.083 77.9166C77.6684 77.9166 86.2498 86.1246 86.25 96.2496C86.25 98.7809 84.1044 100.834 81.458 100.834H33.542C30.8956 100.834 28.75 98.7809 28.75 96.2496C28.7502 86.1246 37.3316 77.9166 47.917 77.9166H67.083ZM47.917 87.0836C44.3698 87.0836 41.2722 88.9267 39.6152 91.6666H75.3848C73.7278 88.9267 70.6302 87.0836 67.083 87.0836H47.917Z" fill="#FF7B00"/>
</g>
<path d="M76.6667 9.16663C79.3129 9.16663 81.4585 11.2185 81.4586 13.7496V18.3336H91.0417C93.688 18.3336 95.8336 20.3853 95.8336 22.9166V32.0836C95.8335 42.0001 89.2475 50.4436 80.0319 53.6354C77.2231 61.0549 70.5247 66.691 62.2917 68.2897V73.3336H52.7086V68.2897C44.4753 66.6911 37.7761 61.0552 34.9674 53.6354C25.7522 50.4434 19.1668 41.9999 19.1667 32.0836V22.9166C19.1667 20.3853 21.3123 18.3336 23.9586 18.3336H33.5417V13.7496C33.5418 11.2185 35.6874 9.16663 38.3336 9.16663H76.6667ZM43.1247 45.8336C43.1248 53.4273 49.5608 59.5835 57.4997 59.5836C65.4386 59.5836 71.8745 53.4274 71.8747 45.8336V18.3336H43.1247V45.8336ZM81.4586 42.3307C84.3989 39.8131 86.2496 36.1554 86.2497 32.0836V27.4996H81.4586V42.3307ZM28.7497 27.4996V32.0836C28.7498 36.1555 30.6013 39.8131 33.5417 42.3307V27.4996H28.7497Z" fill="#FF7B00"/>
</svg>
