<svg width="42" height="42" viewBox="0 0 42 42" fill="none" xmlns="http://www.w3.org/2000/svg">
<path d="M21 36.75C29.6985 36.75 36.75 29.6985 36.75 21C36.75 12.3015 29.6985 5.25 21 5.25C12.3015 5.25 5.25 12.3015 5.25 21C5.25 29.6985 12.3015 36.75 21 36.75Z" stroke="#262626" stroke-width="1.5" stroke-linecap="round" stroke-linejoin="round"/>
<path d="M13.125 7.36639L21 21" stroke="#262626" stroke-width="1.5" stroke-linecap="round" stroke-linejoin="round"/>
<path d="M13.125 34.6336L21 21" stroke="#262626" stroke-width="1.5" stroke-linecap="round" stroke-linejoin="round"/>
<path d="M36.75 21H21" stroke="#262626" stroke-width="1.5" stroke-linecap="round" stroke-linejoin="round"/>
<path d="M19.1297 5.36487C22.0995 6.69568 24.5847 8.91288 26.2443 11.7122C27.9039 14.5116 28.6567 17.7559 28.3992 21" stroke="#262626" stroke-width="1.5" stroke-linecap="round" stroke-linejoin="round"/>
<path d="M8.38359 30.45C8.0497 27.2097 8.72871 23.9456 10.3271 21.1072C11.9255 18.2689 14.3647 15.996 17.3086 14.6016" stroke="#262626" stroke-width="1.5" stroke-linecap="round" stroke-linejoin="round"/>
<path d="M35.4867 27.2015C32.8486 29.109 29.6842 30.1521 26.4289 30.1874C23.1736 30.2226 19.9874 29.2483 17.3086 27.3984" stroke="#262626" stroke-width="1.5" stroke-linecap="round" stroke-linejoin="round"/>
</svg>
