<svg width="44" height="44" viewBox="0 0 44 44" fill="none" xmlns="http://www.w3.org/2000/svg">
<path d="M34.375 6.875H28.1875C27.4281 6.875 26.8125 7.49061 26.8125 8.25V35.75C26.8125 36.5094 27.4281 37.125 28.1875 37.125H34.375C35.1344 37.125 35.75 36.5094 35.75 35.75V8.25C35.75 7.49061 35.1344 6.875 34.375 6.875Z" stroke="black" stroke-width="1.5" stroke-linecap="round" stroke-linejoin="round"/>
<path d="M15.8125 6.875H9.625C8.86561 6.875 8.25 7.49061 8.25 8.25V35.75C8.25 36.5094 8.86561 37.125 9.625 37.125H15.8125C16.5719 37.125 17.1875 36.5094 17.1875 35.75V8.25C17.1875 7.49061 16.5719 6.875 15.8125 6.875Z" stroke="black" stroke-width="1.5" stroke-linecap="round" stroke-linejoin="round"/>
</svg>
