<svg width="290" height="290" viewBox="0 0 290 290" fill="none" xmlns="http://www.w3.org/2000/svg">
<g filter="url(#filter0_f_316_3813)">
<path d="M185.781 81.5625C198.294 81.5625 208.438 71.419 208.438 58.9062C208.438 46.3935 198.294 36.25 185.781 36.25C173.269 36.25 163.125 46.3935 163.125 58.9062C163.125 71.419 173.269 81.5625 185.781 81.5625Z" stroke="#009D0A" stroke-opacity="0.2" stroke-width="1.5" stroke-linecap="round" stroke-linejoin="round"/>
<path d="M9.0625 226.563L91.8711 85.7539C92.6922 84.4185 93.8417 83.3158 95.2101 82.5508C96.5784 81.7859 98.1199 81.3843 99.6875 81.3843C101.255 81.3843 102.797 81.7859 104.165 82.5508C105.533 83.3158 106.683 84.4185 107.504 85.7539L190.312 226.563H9.0625Z" stroke="#009D0A" stroke-opacity="0.2" stroke-width="1.5" stroke-linecap="round" stroke-linejoin="round"/>
<path d="M57.0938 145H142.281" stroke="#009D0A" stroke-opacity="0.2" stroke-width="1.5" stroke-linecap="round" stroke-linejoin="round"/>
<path d="M163.238 180.57L200.621 117.359C201.442 116.024 202.592 114.921 203.96 114.156C205.328 113.391 206.87 112.99 208.437 112.99C210.005 112.99 211.547 113.391 212.915 114.156C214.283 114.921 215.433 116.024 216.254 117.359L280.938 226.563H190.312" stroke="#009D0A" stroke-opacity="0.2" stroke-width="1.5" stroke-linecap="round" stroke-linejoin="round"/>
</g>
<defs>
<filter id="filter0_f_316_3813" x="-3" y="-3" width="296" height="296" filterUnits="userSpaceOnUse" color-interpolation-filters="sRGB">
<feFlood flood-opacity="0" result="BackgroundImageFix"/>
<feBlend mode="normal" in="SourceGraphic" in2="BackgroundImageFix" result="shape"/>
<feGaussianBlur stdDeviation="1.5" result="effect1_foregroundBlur_316_3813"/>
</filter>
</defs>
</svg>
