<svg width="42" height="42" viewBox="0 0 42 42" fill="none" xmlns="http://www.w3.org/2000/svg">
<path d="M21 36.75C29.6985 36.75 36.75 29.6985 36.75 21C36.75 12.3015 29.6985 5.25 21 5.25C12.3015 5.25 5.25 12.3015 5.25 21C5.25 29.6985 12.3015 36.75 21 36.75Z" stroke="#262626" stroke-width="1.5" stroke-linecap="round" stroke-linejoin="round"/>
<path d="M27.7594 18.5391C27.8953 17.6754 28.1038 16.8247 28.3828 15.9961" stroke="#262626" stroke-width="1.5" stroke-linecap="round" stroke-linejoin="round"/>
<path d="M28.3828 26.0039C28.1038 25.1753 27.8953 24.3246 27.7594 23.4609" stroke="#262626" stroke-width="1.5" stroke-linecap="round" stroke-linejoin="round"/>
<path d="M14.2406 18.5391C14.1047 17.6754 13.8962 16.8247 13.6172 15.9961" stroke="#262626" stroke-width="1.5" stroke-linecap="round" stroke-linejoin="round"/>
<path d="M13.6172 26.0039C13.8962 25.1753 14.1047 24.3246 14.2406 23.4609" stroke="#262626" stroke-width="1.5" stroke-linecap="round" stroke-linejoin="round"/>
<path d="M30.6469 11.6321C31.1096 11.0133 31.6139 10.4268 32.1563 9.87659" stroke="#262626" stroke-width="1.5" stroke-linecap="round" stroke-linejoin="round"/>
<path d="M32.1563 32.1235C31.6179 31.5696 31.1138 30.9833 30.6469 30.368" stroke="#262626" stroke-width="1.5" stroke-linecap="round" stroke-linejoin="round"/>
<path d="M9.84375 32.1235C10.3822 31.5696 10.8862 30.9833 11.3531 30.368" stroke="#262626" stroke-width="1.5" stroke-linecap="round" stroke-linejoin="round"/>
<path d="M11.3531 11.6321C10.8904 11.0133 10.3861 10.4268 9.84375 9.87659" stroke="#262626" stroke-width="1.5" stroke-linecap="round" stroke-linejoin="round"/>
</svg>
