<svg width="67" height="19" viewBox="0 0 67 19" fill="none" xmlns="http://www.w3.org/2000/svg">
<path d="M30.1956 14.7288C29.6411 14.7287 29.1915 14.279 29.1914 13.7246V1.00417C29.1914 0.449641 29.6411 4.21387e-05 30.1956 -4.59695e-05H36.8073C37.3617 0.00021644 37.8115 0.44975 37.8116 1.00417V13.7246C37.8114 14.2789 37.3617 14.7286 36.8073 14.7288L30.1956 14.7288ZM59.3434 18.4329C59.0329 18.8924 58.3777 19.0666 57.8803 18.8212L52.2168 16.0273C51.7198 15.7819 51.5684 15.2108 51.8785 14.7514L59.3738 3.65986C59.6844 3.20033 60.3396 3.02616 60.837 3.27151L66.5005 6.06548C66.9977 6.31087 67.1493 6.88285 66.8388 7.34233L59.3434 18.4329ZM9.11973 18.8212C8.62234 19.0666 7.96709 18.8924 7.65655 18.4329L0.161192 7.34233C-0.149301 6.88285 0.00227549 6.31087 0.499528 6.06548L6.16297 3.27151C6.66037 3.02616 7.31562 3.20033 7.62615 3.65986L15.1215 14.7514C15.4316 15.2108 15.2802 15.7819 14.7832 16.0273L9.11973 18.8212Z" fill="#FFAA00"/>
</svg>
