<svg width="42" height="42" viewBox="0 0 42 42" fill="none" xmlns="http://www.w3.org/2000/svg">
<path d="M20 31.5C20 32.0523 20.4477 32.5 21 32.5C21.5523 32.5 22 32.0523 22 31.5H20ZM21 22.75H22C22 22.4848 21.8946 22.2304 21.7071 22.0429L21 22.75ZM14.875 16.625L14.2165 15.8724C14.0082 16.0547 13.8848 16.3151 13.8756 16.5917C13.8663 16.8683 13.9722 17.1364 14.1679 17.3321L14.875 16.625ZM21.875 10.5L22.6343 9.84921C22.4605 9.6465 22.2129 9.52169 21.9466 9.50257C21.6803 9.48345 21.4174 9.57161 21.2165 9.74742L21.875 10.5ZM32.375 18.5C32.9273 18.5 33.375 18.0523 33.375 17.5C33.375 16.9477 32.9273 16.5 32.375 16.5V18.5ZM15.75 29.75H14.75C14.75 33.0637 12.0637 35.75 8.75 35.75V36.75V37.75C13.1683 37.75 16.75 34.1683 16.75 29.75H15.75ZM8.75 36.75V35.75C5.43629 35.75 2.75 33.0637 2.75 29.75H1.75H0.75C0.75 34.1683 4.33172 37.75 8.75 37.75V36.75ZM1.75 29.75H2.75C2.75 26.4363 5.43629 23.75 8.75 23.75V22.75V21.75C4.33172 21.75 0.75 25.3317 0.75 29.75H1.75ZM8.75 22.75V23.75C12.0637 23.75 14.75 26.4363 14.75 29.75H15.75H16.75C16.75 25.3317 13.1683 21.75 8.75 21.75V22.75ZM21 31.5H22V22.75H21H20V31.5H21ZM21 22.75L21.7071 22.0429L15.5821 15.9179L14.875 16.625L14.1679 17.3321L20.2929 23.4571L21 22.75ZM14.875 16.625L15.5335 17.3776L22.5335 11.2526L21.875 10.5L21.2165 9.74742L14.2165 15.8724L14.875 16.625ZM21.875 10.5L21.1157 11.1508C22.0044 12.1876 23.6282 13.9944 25.5841 15.5486C27.5044 17.0743 29.9202 18.5 32.375 18.5V17.5V16.5C30.6298 16.5 28.6706 15.4465 26.8284 13.9827C25.0218 12.5473 23.4956 10.8541 22.6343 9.84921L21.875 10.5ZM40.25 29.75H39.25C39.25 33.0637 36.5637 35.75 33.25 35.75V36.75V37.75C37.6683 37.75 41.25 34.1683 41.25 29.75H40.25ZM33.25 36.75V35.75C29.9363 35.75 27.25 33.0637 27.25 29.75H26.25H25.25C25.25 34.1683 28.8317 37.75 33.25 37.75V36.75ZM26.25 29.75H27.25C27.25 26.4363 29.9363 23.75 33.25 23.75V22.75V21.75C28.8317 21.75 25.25 25.3317 25.25 29.75H26.25ZM33.25 22.75V23.75C36.5637 23.75 39.25 26.4363 39.25 29.75H40.25H41.25C41.25 25.3317 37.6683 21.75 33.25 21.75V22.75ZM29.75 5.25H28.75C28.75 5.66421 28.4142 6 28 6V7V8C29.5188 8 30.75 6.76878 30.75 5.25H29.75ZM28 7V6C27.5858 6 27.25 5.66421 27.25 5.25H26.25H25.25C25.25 6.76878 26.4812 8 28 8V7ZM26.25 5.25H27.25C27.25 4.83579 27.5858 4.5 28 4.5V3.5V2.5C26.4812 2.5 25.25 3.73122 25.25 5.25H26.25ZM28 3.5V4.5C28.4142 4.5 28.75 4.83579 28.75 5.25H29.75H30.75C30.75 3.73122 29.5188 2.5 28 2.5V3.5Z" fill="black"/>
</svg>
