<svg width="24" height="24" viewBox="0 0 24 24" fill="none" xmlns="http://www.w3.org/2000/svg">
<path d="M11.6512 18.1657C11.6512 18.3577 11.7274 18.5418 11.8632 18.6775C11.9989 18.8133 12.183 18.8895 12.375 18.8895C12.567 18.8895 12.7511 18.8133 12.8868 18.6775C13.0226 18.5418 13.0988 18.3577 13.0988 18.1657V15.2703C13.0988 15.0784 13.0226 14.8943 12.8868 14.7585C12.7511 14.6228 12.567 14.5465 12.375 14.5465C12.183 14.5465 11.9989 14.6228 11.8632 14.7585C11.7274 14.8943 11.6512 15.0784 11.6512 15.2703V18.1657Z" fill="#FF7B00"/>
<path d="M12.375 1.9502C13.0694 1.9502 13.6975 2.1485 14.374 2.47852L14.8857 2.74414C15.4181 3.03738 16.0191 3.41091 16.7227 3.84766L18.7168 5.08594L19.9199 5.8418C20.2785 6.07422 20.5948 6.29062 20.8701 6.50195L21.0781 6.66699C21.5497 7.05406 21.924 7.46126 22.2041 7.97266L22.3154 8.19238C22.5575 8.71079 22.6749 9.26362 22.7344 9.90039L22.7725 10.458C22.8003 11.0467 22.7998 11.731 22.7998 12.5361V14.0928C22.7998 15.6997 22.7998 17.0142 22.7012 18.0801L22.6533 18.5215C22.5106 19.6165 22.2191 20.5208 21.584 21.25L21.4521 21.3936C20.811 22.0561 20.0186 22.3974 19.0654 22.5781L18.6475 22.6465C17.543 22.8005 16.1318 22.7998 14.3613 22.7998H10.3887C8.83951 22.7998 7.56544 22.8004 6.53125 22.6973L6.10254 22.6465C5.03124 22.4982 4.14763 22.1926 3.43848 21.5312L3.29883 21.3936C2.66142 20.7346 2.33576 19.9242 2.16309 18.9492L2.09766 18.5215C1.94949 17.3835 1.9502 15.929 1.9502 14.0928V12.5361C1.9502 11.4628 1.94973 10.6029 2.01562 9.90039L2.04492 9.63281C2.1226 9.01965 2.26682 8.48212 2.5459 7.97266L2.67188 7.75879C2.97864 7.27565 3.37969 6.88411 3.87988 6.50195L4.32324 6.18066C4.79843 5.85214 5.36775 5.49968 6.0332 5.08594L8.02734 3.84766L9.30762 3.06348C9.69551 2.83367 10.0482 2.63753 10.375 2.47852L10.627 2.36133C11.2113 2.10275 11.7681 1.9502 12.375 1.9502ZM12.375 3.49805C12.0462 3.49805 11.7067 3.57533 11.2539 3.77637L11.0527 3.87012C10.7661 4.00982 10.451 4.18614 10.085 4.40332L8.81152 5.18262L6.88086 6.38086C5.95259 6.95753 5.30331 7.35983 4.82031 7.73047V7.73145C4.40945 8.04592 4.15459 8.30952 3.97559 8.59277L3.90332 8.71484C3.76697 8.96423 3.67212 9.2468 3.60938 9.62793L3.55762 10.0449C3.49806 10.6674 3.49805 11.4537 3.49805 12.5723V14.04C3.49805 15.9436 3.49921 17.2956 3.63379 18.3213L3.6875 18.6787C3.8268 19.4684 4.059 19.9536 4.41113 20.3174V20.3184L4.56836 20.4658C4.95275 20.7919 5.47553 20.9968 6.31543 21.1143L6.7002 21.1592C7.63479 21.251 8.83209 21.252 10.4443 21.252H14.3057C16.1472 21.252 17.4487 21.2507 18.4346 21.1143L18.7764 21.0586C19.4217 20.9363 19.8526 20.7451 20.1826 20.4658L20.3398 20.3184C20.7413 19.9017 20.9867 19.3272 21.1172 18.3213L21.1611 17.9209C21.2504 16.9487 21.252 15.7047 21.252 14.04V12.5723C21.252 11.7332 21.2516 11.081 21.2266 10.5449L21.1924 10.0449C21.1429 9.51465 21.0544 9.14877 20.9111 8.84277L20.8467 8.71484C20.7103 8.4662 20.5269 8.23884 20.2461 7.98926L19.9307 7.73145C19.6886 7.54608 19.4052 7.35199 19.0664 7.13281L17.8691 6.38086L15.9385 5.18262C15.2034 4.72639 14.6335 4.37314 14.1523 4.10742L13.6973 3.87012C13.1405 3.59895 12.7508 3.49805 12.375 3.49805Z" fill="#FF7B00" stroke="#FF7B00" stroke-width="0.1"/>
</svg>
