<svg width="25" height="25" viewBox="0 0 25 25" fill="none" xmlns="http://www.w3.org/2000/svg">
<g clip-path="url(#clip0_243_578)">
<path d="M17.2421 12.6357C16.1177 13.7601 11.7421 17.1357 11.7421 17.1357M17.2421 12.6357C20.2421 9.63573 20.2421 7.63573 20.2421 4.63573C17.2421 4.63573 15.2421 4.63573 12.2421 7.63573M17.2421 12.6357L17.7173 15.0118C18.0452 16.6511 17.532 18.3458 16.3499 19.5279L15.1795 20.6983C14.7097 21.1681 13.9209 21.0576 13.5982 20.4768L11.7421 17.1357M12.2421 7.63573L7.74208 13.1357M12.2421 7.63573L9.86604 7.16052C8.22673 6.83266 6.53204 7.34577 5.34992 8.52789L4.17951 9.6983C3.70973 10.1681 3.82021 10.9569 4.40098 11.2796L7.74208 13.1357M7.74208 13.1357L11.7421 17.1357M15.7421 9.13622L14.7421 10.1362M3.24208 21.6357L6.63431 20.9573C7.56916 20.7703 8.24208 19.9495 8.24208 18.9961L8.24208 18.6357C8.24208 17.5312 7.34665 16.6357 6.24208 16.6357L5.88169 16.6357C4.92833 16.6357 4.1075 17.3087 3.92053 18.2435L3.24208 21.6357Z" stroke="#4AA350" stroke-width="2" stroke-linecap="round" stroke-linejoin="round"/>
</g>
<defs>
<clipPath id="clip0_243_578">
<rect width="24" height="24" fill="white" transform="translate(0.242081 0.635731)"/>
</clipPath>
</defs>
</svg>
