<svg width="14" height="14" viewBox="0 0 14 14" fill="none" xmlns="http://www.w3.org/2000/svg">
<path fill-rule="evenodd" clip-rule="evenodd" d="M12.7145 12.7145C12.1886 13.2404 11.336 13.2404 10.8101 12.7145L6.99999 8.90438L3.18989 12.7145C2.66401 13.2404 1.8114 13.2404 1.28552 12.7145C0.759637 12.1886 0.759638 11.336 1.28552 10.8101L5.09562 7L1.28552 3.1899C0.759638 2.66402 0.759637 1.8114 1.28552 1.28552C1.8114 0.759645 2.66401 0.759645 3.18989 1.28552L6.99999 5.09563L10.8101 1.28552C11.336 0.759645 12.1886 0.759645 12.7145 1.28552C13.2404 1.8114 13.2404 2.66402 12.7145 3.1899L8.90437 7L12.7145 10.8101C13.2404 11.336 13.2404 12.1886 12.7145 12.7145Z" fill="#001429"/>
</svg>
