<svg width="27" height="25" viewBox="0 0 27 25" fill="none" xmlns="http://www.w3.org/2000/svg">
<path d="M24.6786 9.30973C22.631 11.0467 18.4048 12.2378 13.5 12.2378C8.59524 12.2378 4.36905 10.9971 2.32143 9.30973C1.94597 9.04198 1.63253 8.69033 1.40394 8.28039C1.17534 7.87045 1.03735 7.41254 1 6.94V11.6422C1 14.5703 6.59524 16.94 13.5 16.94C20.4048 16.94 26 14.5951 26 11.6422V6.94C25.9627 7.41254 25.8247 7.87045 25.5961 8.28039C25.3675 8.69033 25.054 9.04198 24.6786 9.30973Z" stroke="white" stroke-width="2" stroke-linecap="round" stroke-linejoin="round"/>
<path d="M13.5 1.94C6.59524 1.94 1 4.10343 1 6.77657C1.03735 7.20797 1.17534 7.62602 1.40394 8.00027C1.63253 8.37452 1.94597 8.69556 2.32143 8.94C4.36905 7.34292 8.59524 6.25554 13.5 6.25554C18.4048 6.25554 22.631 7.38822 24.6786 8.94C25.054 8.69556 25.3675 8.37452 25.5961 8.00027C25.8247 7.62602 25.9627 7.20797 26 6.77657C26 4.10343 20.4048 1.94 13.5 1.94Z" stroke="white" stroke-width="2" stroke-linecap="round" stroke-linejoin="round"/>
<path d="M13 15.94V19.94" stroke="white" stroke-width="2" stroke-linecap="round" stroke-linejoin="round"/>
<path d="M13.5 23.94C14.8807 23.94 16 23.0446 16 21.94C16 20.8354 14.8807 19.94 13.5 19.94C12.1193 19.94 11 20.8354 11 21.94C11 23.0446 12.1193 23.94 13.5 23.94Z" stroke="white" stroke-width="2" stroke-linecap="round" stroke-linejoin="round"/>
</svg>
