<svg width="28" height="28" viewBox="0 0 28 28" fill="none" xmlns="http://www.w3.org/2000/svg">
<ellipse cx="13.5" cy="6.84182" rx="6.5" ry="5.84182" stroke="white" stroke-width="1.5" stroke-linecap="round" stroke-linejoin="round"/>
<path fill-rule="evenodd" clip-rule="evenodd" d="M1.00003 22.6981C0.997876 22.2198 1.12375 21.7474 1.36811 21.3166C2.13496 20.0133 4.29746 19.3226 6.09187 19.0098C7.386 18.7751 8.69801 18.6183 10.0181 18.5406C12.4622 18.3582 14.9204 18.3582 17.3645 18.5406C18.6845 18.6192 19.9964 18.776 21.2907 19.0098C23.0851 19.3226 25.2476 19.9482 26.0145 21.3166C26.5059 22.1948 26.5059 23.2144 26.0145 24.0926C25.2476 25.4611 23.0851 26.0866 21.2907 26.3864C19.9981 26.6308 18.6856 26.792 17.3645 26.8686C15.3752 27.0119 13.3766 27.038 11.3831 26.9468C10.923 26.9468 10.4782 26.9468 10.0181 26.8686C8.7019 26.7929 7.39445 26.6317 6.10721 26.3864C4.29746 26.0866 2.15029 25.4611 1.36811 24.0926C1.12499 23.6568 0.999249 23.1804 1.00003 22.6981Z" stroke="white" stroke-width="1.5" stroke-linecap="round" stroke-linejoin="round"/>
</svg>
